Coordinates
version=1
nRows=14
nColumns=24
inDegrees=yes

Units are S.I. units (second, meters, Newtons, ...)
Angles are in degrees.

endheader
time	pelvis_tilt	pelvis_list	pelvis_rotation	pelvis_tx	pelvis_ty	pelvis_tz	hip_flexion_r	hip_adduction_r	hip_rotation_r	knee_angle_r	ankle_angle_r	subtalar_angle_r	mtp_angle_r	hip_flexion_l	hip_adduction_l	hip_rotation_l	knee_angle_l	ankle_angle_l	subtalar_angle_l	mtp_angle_l	lumbar_extension	lumbar_bending	lumbar_rotation
      3.51500000	     13.21693879	      1.11053009	     -4.84020115	     -0.64200836	      0.94001880	      0.01416395	    -25.45862790	     -2.72973462	     -1.79254536	    -11.30860442	     30.77610948	     18.55968382	     14.97777394	      1.75368061	      1.62253500	    -22.64682499	      0.57894740	      6.11178632	     24.88943803	     35.22026994	    -23.67040942	      1.72869897	      7.49825027
      3.52000000	     13.14838263	      1.14159976	     -4.93692542	     -0.63719223	      0.93925111	      0.01369757	    -25.46721374	     -2.90030390	     -2.00241577	    -11.78324514	     30.99211357	     19.00338367	     14.60464360	      1.86947785	      1.70767555	    -21.86536523	      0.04456423	      5.75567381	     23.88289627	     35.28717078	    -23.56571497	      1.56708624	      7.49614677
      3.52500000	     13.10817697	      1.19047652	     -5.06820604	     -0.63234223	      0.93855531	      0.01324982	    -25.46877034	     -3.11926988	     -2.25248267	    -12.34088158	     31.42533101	     19.63987836	     12.48459985	      1.94198961	      1.81680819	    -21.14577378	     -0.47299236	      5.28826144	     22.87282664	     36.44848609	    -23.48678092	      1.37146531	      7.56642891
      3.53000000	     13.05372689	      1.22980404	     -5.16596913	     -0.62751363	      0.93795203	      0.01278591	    -25.49895258	     -3.29428908	     -2.34567284	    -12.77921548	     31.48410298	     19.85437053	     12.54639185	      2.03623489	      1.91198032	    -20.32785368	     -1.02105860	      4.84136890	     21.71506123	     36.39790593	    -23.39627824	      1.19267187	      7.59219979
      3.53500000	     13.00687061	      1.28961136	     -5.24664415	     -0.62268181	      0.93740659	      0.01223436	    -25.48094121	     -3.50310946	     -2.55773978	    -13.34434031	     31.55698875	     20.24691730	     12.67953743	      2.11375855	      2.03616529	    -19.48231105	     -1.54761924	      4.35682057	     20.56111616	     36.37805702	    -23.31444128	      1.00206885	      7.57688786
      3.54000000	     12.96589491	      1.35525538	     -5.33345553	     -0.61784359	      0.93696473	      0.01168348	    -25.47037801	     -3.72094460	     -2.70889371	    -13.88854553	     31.59763792	     20.60026071	     12.84783924	      2.17929121	      2.16878339	    -18.65902977	     -2.07034573	      3.80825210	     19.34719076	     36.35181450	    -23.23806918	      0.80141056	      7.58160597
      3.54500000	     12.93451443	      1.42587777	     -5.41970449	     -0.61301274	      0.93662502	      0.01111467	    -25.44253603	     -3.94893762	     -2.84052747	    -14.48555209	     31.58518546	     20.93674213	     13.05496173	      2.22982858	      2.30853062	    -17.85353070	     -2.58901972	      3.25658514	     18.11326071	     36.32437066	    -23.17467122	      0.59475607	      7.58334733
      3.55000000	     12.90446447	      1.51648098	     -5.47083927	     -0.60814511	      0.93635725	      0.01043872	    -25.38476881	     -4.20201885	     -3.09574485	    -15.15270026	     31.46706988	     21.42033776	     13.88261236	      2.28581989	      2.47371460	    -17.03410771	     -3.13022027	      2.78499333	     16.86630162	     36.61777970	    -23.10855383	      0.38466633	      7.54801823
      3.55500000	     12.88535502	      1.59217540	     -5.51231914	     -0.60330060	      0.93623802	      0.00981800	    -25.35642920	     -4.41228006	     -3.17439823	    -15.76801985	     31.30016900	     21.56657101	     14.18802753	      2.30999084	      2.62027132	    -16.23173384	     -3.63332006	      2.19595304	     15.63517996	     36.59249085	    -23.05743014	      0.18250436	      7.55143286
      3.56000000	     12.85822909	      1.68118717	     -5.54778016	     -0.59844395	      0.93619289	      0.00915218	    -25.27342640	     -4.64913106	     -3.30144365	    -16.47717199	     31.08836323	     21.86823601	     14.62027346	      2.34899123	      2.77952145	    -15.48323543	     -4.16436320	      1.69791824	     14.45705601	     36.57723560	    -22.99868156	     -0.02600780	      7.51690413
      3.56500000	     12.86339229	      1.77637061	     -5.61880868	     -0.59354117	      0.93629297	      0.00854535	    -25.20340644	     -4.91350879	     -3.38393259	    -17.19248002	     30.57836659	     22.13526688	     17.83358331	      2.33534500	      2.94603655	    -14.88438086	     -4.67857563	      1.23932202	     13.38611576	     37.11538130	    -22.97077744	     -0.25810411	      7.52026376
      3.57000000	     12.85602822	      1.82378178	     -5.60971066	     -0.58870934	      0.93646988	      0.00785130	    -25.12183804	     -5.08245673	     -3.40863302	    -17.92567726	     30.20838816	     22.26679699	     18.01797093	      2.35338623	      3.05431522	    -14.19119630	     -5.24707119	      0.90682981	     12.34041306	     37.01514221	    -22.94351554	     -0.41019091	      7.48426796
      3.57500000	     12.88781262	      1.90139699	     -5.58194151	     -0.58376931	      0.93675477	      0.00710544	    -25.04996196	     -5.30454020	     -3.58886290	    -18.72668605	     29.67993198	     22.66123879	     19.76196126	      2.31114818	      3.19925482	    -13.58261300	     -5.80370737	      0.71270646	     11.53290954	     36.83579160	    -22.94589449	     -0.58877051	      7.42061111
      3.58000000	     12.87776581	      1.95320268	     -5.59485361	     -0.57893397	      0.93710356	      0.00647471	    -24.89726100	     -5.48784830	     -3.53287488	    -19.56620388	     29.19539935	     22.75779876	     20.04063649	      2.31517068	      3.30454069	    -13.09322696	     -6.36624248	      0.45165977	     10.68937307	     36.68989932	    -22.91786861	     -0.75627955	      7.42450120
